{"title":"Sierra Burgess Is A Loser 2018 1080p WEB-DL DD 5.1 x264 [MW]","magnet":"magnet:?xt=urn:btih:26bc2cf64584681ace23d57ff6cce656746602eb&dn=Sierra+Burgess+Is+A+Loser+2018+1080p+WEB-DL+DD+5.1+x264+%5BMW%5D&tr=udp%3A%2F%2Ftracker.leechers-paradise.org%3A6969&tr=udp%3A%2F%2Fzer0day.ch%3A1337&tr=udp%3A%2F%2Fopen.demonii.com%3A1337&tr=udp%3A%2F%2Ftracker.coppersurfer.tk%3A6969&tr=udp%3A%2F%2Fexodus.desync.com%3A6969","uploader":"MFreaky","categoryP":"video","categoryS":"hd___movies","size":"2262434799","seeders":"7","leechers":"18","description":" <a href=\"https://pichub.site/image/DXLit\" rel=\"nofollow\" target=\"_NEW\">https://pichub.site/image/DXLit</a> <a href=\"\nhttps://pichub.site/image/DXobp\" rel=\"nofollow\" target=\"_NEW\">\nhttps://pichub.site/image/DXobp</a> <a href=\"\nhttps://pichub.site/image/DX2cy\" rel=\"nofollow\" target=\"_NEW\">\nhttps://pichub.site/image/DX2cy</a> <a href=\"\nhttps://pichub.site/image/DXl90\" rel=\"nofollow\" target=\"_NEW\">\nhttps://pichub.site/image/DXl90</a> <a href=\"\nhttps://pichub.site/image/DX5Ub\" rel=\"nofollow\" target=\"_NEW\">\nhttps://pichub.site/image/DX5Ub</a>\r\n\r\nIMDB <a href=\"\nhttps://www.imdb.com/title/tt3120280/\" rel=\"nofollow\" target=\"_NEW\">\nhttps://www.imdb.com/title/tt3120280/</a>\r\n\r\nVideo\r\nID                                       : 1\r\nFormat                                   : AVC\r\nFormat/Info                              : Advanced Video Codec\r\nFormat profile                           : High@L4.1\r\nFormat settings                          : CABAC / 4 Ref Frames\r\nFormat settings, CABAC                   : Yes\r\nFormat settings, RefFrames               : 4 frames\r\nCodec ID                                 : V_MPEG4/ISO/AVC\r\nDuration                                 : 1 h 45 min\r\nBit rate                                 : 2 500 kb/s\r\nWidth                                    : 1 920 pixels\r\nHeight                                   : 1 036 pixels\r\nDisplay aspect ratio                     : 1.85:1\r\nFrame rate mode                          : Constant\r\nFrame rate                               : 23.976 (24000/1001) FPS\r\nColor space                              : YUV\r\nChroma subsampling                       : 4:2:0\r\nBit depth                                : 8 bits\r\nScan type                                : Progressive\r\nBits/(Pixel*Frame)                       : 0.052\r\nStream size                              : 1.82 GiB (86%)\r\nWriting library                          : x264 core 155 r2901 7d0ff22\r\nDefault                                  : Yes\r\nForced                                   : No\r\n\r\nAudio\r\nID                                       : 2\r\nFormat                                   : AC-3\r\nFormat/Info                              : Audio Coding 3\r\nCodec ID                                 : A_AC3\r\nDuration                                 : 1 h 45 min\r\nBit rate mode                            : Constant\r\nBit rate                                 : 384 kb/s\r\nChannel(s)                               : 6 channels\r\nChannel positions                        : Front: L C R, Side: L R, LFE\r\nSampling rate                            : 48.0 kHz\r\nFrame rate                               : 31.250 FPS (1536 SPF)\r\nBit depth                                : 16 bits\r\nCompression mode                         : Lossy\r\nStream size                              : 291 MiB (13%)\r\nLanguage                                 : English\r\nService kind                             : Complete Main\r\nDefault                                  : Yes\r\nForced                                   : No","last_updated":"2018-09-08T12:17:33.982Z","parsed":{"xt":"urn:btih:26bc2cf64584681ace23d57ff6cce656746602eb","dn":"Sierra Burgess Is A Loser 2018 1080p WEB-DL DD 5.1 x264 [MW]","tr":["udp://exodus.desync.com:6969","udp://open.demonii.com:1337","udp://tracker.coppersurfer.tk:6969","udp://tracker.leechers-paradise.org:6969","udp://zer0day.ch:1337"],"infoHash":"26bc2cf64584681ace23d57ff6cce656746602eb","infoHashBuffer":{"type":"Buffer","data":[38,188,44,246,69,132,104,26,206,35,213,127,246,204,230,86,116,102,2,235]},"name":"Sierra Burgess Is A Loser 2018 1080p WEB-DL DD 5.1 x264 [MW]","announce":["udp://exodus.desync.com:6969","udp://open.demonii.com:1337","udp://tracker.coppersurfer.tk:6969","udp://tracker.leechers-paradise.org:6969","udp://zer0day.ch:1337"],"urlList":[]}}